<svg width="512" height="512" viewBox="0 0 512 512" fill="none" xmlns="http://www.w3.org/2000/svg">
<rect width="512" height="512" fill="#D9D9D9"/>
<path d="M93.5465 145.383C113.111 235.599 97.8281 360.853 149.898 440.682C149.898 440.682 207.71 460 252.675 460C297.641 460 355.453 434.243 355.453 434.243C374.724 427.803 397.588 378.174 406.842 356.972C420.909 324.741 441.334 208.848 382.25 205.463C350.109 203.622 333.598 257.595 320.357 278.109C308.143 297.031 316.824 251.108 311.739 237.27C296.698 196.348 253.34 185.885 239.661 232.165C228.203 270.931 227.879 295.446 216.549 244.338C204.83 191.477 175.485 133.505 147.997 86.8739C135.441 65.5739 120.314 33.9409 104.123 68.0253C92.2536 93.012 87.681 118.336 93.5465 145.383Z" fill="#D9D9D9" stroke="#000086" stroke-width="39.7544"/>
</svg>
