<?xml version="1.0" standalone="no"?>
<!DOCTYPE svg PUBLIC "-//W3C//DTD SVG 20010904//EN"
 "http://www.w3.org/TR/2001/REC-SVG-20010904/DTD/svg10.dtd">
<svg version="1.0" xmlns="http://www.w3.org/2000/svg"
 width="700.000000pt" height="700.000000pt" viewBox="0 0 700.000000 700.000000"
 preserveAspectRatio="xMidYMid meet">
<metadata>
Created by potrace 1.14, written by Peter Selinger 2001-2017
</metadata>
<g transform="translate(0.000000,700.000000) scale(0.100000,-0.100000)"
fill="#000000" stroke="none">
<path d="M1550 6536 c-76 -18 -118 -38 -179 -86 -106 -84 -212 -270 -295 -521
-110 -329 -131 -638 -66 -953 74 -357 101 -598 165 -1426 71 -919 119 -1286
225 -1709 98 -388 243 -740 412 -998 l65 -99 134 -41 c582 -181 1132 -275
1519 -260 383 15 916 150 1400 354 218 93 361 239 563 578 134 224 316 608
376 792 62 190 119 463 153 733 20 164 17 579 -6 715 -79 477 -300 755 -659
832 -110 23 -271 13 -365 -21 -180 -67 -332 -197 -471 -403 -23 -35 -43 -63
-45 -63 -2 0 -20 30 -40 66 -118 214 -313 387 -511 450 -98 32 -245 42 -337
24 -167 -32 -324 -141 -436 -302 l-39 -57 -68 187 c-103 284 -213 535 -386
882 -160 320 -447 834 -568 1015 -124 187 -251 288 -395 314 -71 13 -75 13
-146 -3z m223 -833 c407 -702 650 -1213 809 -1698 50 -154 67 -216 138 -508
50 -208 88 -313 135 -377 98 -134 266 -166 401 -76 92 62 128 135 201 411 94
358 119 423 188 484 44 38 74 39 143 5 66 -33 141 -116 187 -209 l35 -71 0
-210 c0 -115 5 -242 10 -283 11 -82 47 -172 88 -214 64 -67 170 -102 259 -86
153 29 215 106 427 526 246 489 375 601 543 476 42 -30 105 -162 127 -260 66
-297 30 -781 -90 -1202 -66 -234 -278 -667 -445 -911 -96 -141 -133 -171 -290
-234 -371 -148 -757 -249 -1061 -277 -285 -26 -838 59 -1293 198 l-60 19 -57
109 c-174 335 -296 784 -367 1360 -27 212 -55 524 -86 940 -56 761 -93 1074
-163 1410 -24 116 -27 150 -26 320 0 172 3 199 26 285 33 119 87 270 98 270 5
0 60 -89 123 -197z"/>
</g>
</svg>
